<?xml version="1.0" encoding="UTF-8"?>
<svg xmlns="http://www.w3.org/2000/svg" xmlns:xlink="http://www.w3.org/1999/xlink" width="200px" height="69px" viewBox="0 0 200 69" version="1.1">
<g id="surface1">
<path style=" stroke:none;fill-rule:nonzero;fill:rgb(0%,0%,0%);fill-opacity:1;" d="M 13.863281 4.59375 C 9.023438 5.773438 4.582031 9.613281 2.632812 14.257812 C 0.941406 18.261719 1.011719 22.976562 2.867188 28.230469 C 3.5 30.046875 4.652344 32.425781 4.816406 32.238281 C 4.839844 32.191406 4.792969 31.058594 4.675781 29.691406 C 4.582031 28.324219 4.558594 27.148438 4.652344 27.054688 C 4.746094 26.984375 5.828125 27.101562 7.050781 27.335938 C 10.078125 27.949219 9.960938 27.972656 9.398438 26.863281 C 8.152344 24.4375 7.847656 20.574219 8.695312 17.863281 C 10.125 13.171875 14.425781 10.390625 19.265625 11.003906 L 20.792969 11.21875 L 21.757812 10.226562 C 22.675781 9.285156 23.496094 8.953125 24.882812 8.953125 C 25.445312 8.953125 25.539062 8.835938 25.773438 7.824219 C 25.894531 7.210938 26.082031 6.527344 26.175781 6.316406 C 26.410156 5.820312 25.070312 5.089844 22.980469 4.59375 C 21.125 4.148438 15.671875 4.148438 13.863281 4.59375 Z M 14.449219 7.917969 C 14.660156 8.128906 14.777344 8.460938 14.707031 8.625 C 14.636719 8.8125 14.683594 8.953125 14.800781 8.953125 C 15.414062 8.953125 14.707031 10.015625 13.933594 10.25 C 13.273438 10.441406 12.453125 9.660156 12.453125 8.859375 C 12.453125 7.707031 13.675781 7.140625 14.449219 7.917969 Z M 11.75 9.074219 C 11.75 9.261719 11.535156 9.425781 11.300781 9.425781 C 10.738281 9.425781 10.527344 9.734375 10.714844 10.226562 C 10.902344 10.699219 11.75 10.722656 11.75 10.25 C 11.75 10.0625 11.914062 9.898438 12.125 9.898438 C 12.710938 9.898438 12.40625 10.886719 11.699219 11.289062 C 11.113281 11.640625 11.019531 11.617188 10.480469 11.097656 C 9.773438 10.441406 9.703125 9.757812 10.269531 9.144531 C 10.738281 8.625 11.75 8.578125 11.75 9.074219 Z M 9.609375 11.171875 L 10.410156 11.996094 L 9.726562 12.703125 C 8.882812 13.597656 8.671875 13.597656 7.707031 12.773438 C 7.191406 12.277344 7.023438 11.972656 7.144531 11.664062 C 7.285156 11.265625 7.355469 11.289062 7.941406 11.851562 C 8.316406 12.207031 8.71875 12.488281 8.882812 12.488281 C 9.351562 12.488281 9.210938 11.902344 8.574219 11.3125 C 8.011719 10.769531 7.988281 10.367188 8.550781 10.367188 C 8.695312 10.367188 9.1875 10.722656 9.609375 11.171875 Z M 6.789062 13.21875 C 7.519531 13.621094 8.152344 13.996094 8.199219 14.046875 C 8.410156 14.234375 7.472656 15.765625 7.050781 15.90625 C 6.039062 16.238281 4.933594 15.011719 5.425781 14.09375 C 5.640625 13.667969 5.617188 13.527344 5.285156 13.289062 C 4.933594 13.03125 4.957031 12.488281 5.332031 12.488281 C 5.425781 12.488281 6.0625 12.820312 6.789062 13.21875 Z M 5.804688 17.085938 C 5.734375 17.53125 5.757812 17.910156 5.898438 17.910156 C 6.015625 17.910156 6.109375 17.578125 6.109375 17.179688 C 6.109375 16.355469 6.648438 16.332031 6.765625 17.15625 C 6.882812 17.933594 6.390625 18.617188 5.734375 18.617188 C 4.769531 18.617188 4.230469 18.191406 4.230469 17.484375 C 4.230469 16.683594 4.605469 16.261719 5.355469 16.261719 C 5.898438 16.261719 5.921875 16.332031 5.804688 17.085938 Z M 4.488281 19.464844 C 4.863281 19.820312 4.957031 19.820312 5.449219 19.464844 C 6.15625 18.96875 6.34375 18.992188 6.34375 19.558594 C 6.34375 19.84375 6.0625 20.171875 5.640625 20.382812 C 4.769531 20.832031 4.699219 21.445312 5.523438 21.445312 C 5.898438 21.445312 6.109375 21.585938 6.109375 21.796875 C 6.109375 22.082031 5.78125 22.152344 4.652344 22.152344 C 2.679688 22.152344 2.492188 21.988281 2.703125 20.714844 C 2.960938 19.089844 3.59375 18.664062 4.488281 19.464844 Z M 4.488281 19.464844 "/>
<path style=" stroke:none;fill-rule:nonzero;fill:rgb(0%,0%,0%);fill-opacity:1;" d="M 13.273438 8.484375 C 13.203125 8.601562 13.226562 8.71875 13.371094 8.71875 C 13.488281 8.71875 13.675781 8.601562 13.746094 8.484375 C 13.816406 8.34375 13.792969 8.246094 13.652344 8.246094 C 13.535156 8.246094 13.347656 8.34375 13.273438 8.484375 Z M 13.273438 8.484375 "/>
<path style=" stroke:none;fill-rule:nonzero;fill:rgb(0%,0%,0%);fill-opacity:1;" d="M 13.792969 9.121094 C 13.582031 9.167969 13.441406 9.332031 13.511719 9.449219 C 13.722656 9.78125 14.027344 9.710938 14.191406 9.308594 C 14.261719 9.121094 14.285156 8.976562 14.261719 8.976562 C 14.238281 9.003906 14.027344 9.050781 13.792969 9.121094 Z M 13.792969 9.121094 "/>
<path style=" stroke:none;fill-rule:nonzero;fill:rgb(0%,0%,0%);fill-opacity:1;" d="M 6.15625 14.1875 C 5.96875 14.375 5.945312 14.539062 6.132812 14.777344 C 6.484375 15.199219 7.285156 15.175781 7.285156 14.726562 C 7.285156 14.234375 6.484375 13.855469 6.15625 14.1875 Z M 6.15625 14.1875 "/>
<path style=" stroke:none;fill-rule:nonzero;fill:rgb(0%,0%,0%);fill-opacity:1;" d="M 4.816406 17.179688 C 4.746094 17.296875 4.792969 17.460938 4.910156 17.53125 C 5.027344 17.601562 5.167969 17.507812 5.261719 17.320312 C 5.402344 16.945312 5.050781 16.824219 4.816406 17.179688 Z M 4.816406 17.179688 "/>
<path style=" stroke:none;fill-rule:nonzero;fill:rgb(0%,0%,0%);fill-opacity:1;" d="M 3.523438 20.597656 C 3.523438 20.996094 3.640625 21.210938 3.898438 21.210938 C 4.136719 21.210938 4.230469 21.042969 4.183594 20.691406 C 4.066406 19.9375 3.523438 19.867188 3.523438 20.597656 Z M 3.523438 20.597656 "/>
<path style=" stroke:none;fill-rule:nonzero;fill:rgb(0%,0%,0%);fill-opacity:1;" d="M 43.703125 4.382812 C 41.660156 4.785156 39.261719 5.609375 37.03125 6.667969 L 34.492188 7.871094 L 34.632812 8.90625 C 34.703125 9.496094 34.773438 11.074219 34.773438 12.417969 L 34.773438 14.871094 L 36.960938 13.691406 C 40.71875 11.6875 42.246094 11.21875 45.230469 11.21875 C 47.792969 11.195312 47.863281 11.21875 49.648438 12.089844 C 51.832031 13.171875 53.5 14.777344 54.441406 16.660156 C 55.050781 17.933594 55.097656 18.238281 55.097656 20.738281 L 55.097656 23.449219 L 56.039062 23.941406 C 57.023438 24.4375 57.777344 25.496094 58.011719 26.699219 C 58.105469 27.125 58.292969 27.453125 58.457031 27.429688 C 58.625 27.40625 59.257812 27.382812 59.890625 27.359375 L 61.019531 27.335938 L 61.394531 25.96875 C 63.179688 19.582031 61.652344 13.457031 57.214844 9.074219 C 54.160156 6.054688 50.632812 4.5 46.523438 4.359375 C 45.300781 4.3125 44.03125 4.335938 43.703125 4.382812 Z M 52.421875 7.375 C 53.382812 8.011719 53.5 8.953125 52.679688 9.308594 C 52.230469 9.496094 52.183594 9.660156 52.300781 10.320312 C 52.445312 11.027344 52.398438 11.097656 52.019531 11.027344 C 51.714844 10.980469 51.550781 10.722656 51.503906 10.25 C 51.457031 9.851562 51.292969 9.402344 51.152344 9.238281 C 50.964844 8.976562 50.847656 9.050781 50.585938 9.519531 C 50.257812 10.15625 49.929688 10.296875 49.695312 9.898438 C 49.507812 9.589844 50.941406 6.835938 51.316406 6.835938 C 51.480469 6.835938 51.972656 7.070312 52.421875 7.375 Z M 55.027344 10.0625 C 55.523438 10.488281 55.570312 10.910156 55.191406 11.570312 C 54.957031 12.019531 54.957031 12.019531 54.347656 11.546875 C 53.734375 11.074219 53.382812 11.050781 53.6875 11.523438 C 53.757812 11.664062 53.996094 11.78125 54.183594 11.78125 C 54.371094 11.78125 54.511719 11.949219 54.511719 12.136719 C 54.511719 12.585938 54.042969 12.585938 53.382812 12.113281 C 52.726562 11.664062 52.703125 10.769531 53.335938 10.132812 C 53.898438 9.566406 54.441406 9.542969 55.027344 10.0625 Z M 56.859375 12.042969 C 56.859375 12.183594 56.578125 12.535156 56.226562 12.84375 C 55.757812 13.242188 55.640625 13.480469 55.828125 13.667969 C 56.015625 13.855469 56.25 13.785156 56.71875 13.410156 C 57.074219 13.125 57.496094 12.984375 57.730469 13.054688 C 58.058594 13.195312 58.035156 13.265625 57.589844 13.761719 C 57.308594 14.070312 56.835938 14.445312 56.507812 14.609375 C 56.015625 14.871094 55.898438 14.847656 55.355469 14.234375 C 54.558594 13.339844 54.582031 13.125 55.617188 12.277344 C 56.414062 11.617188 56.859375 11.523438 56.859375 12.042969 Z M 59.117188 15.671875 C 59.257812 16.261719 59.09375 16.730469 58.742188 16.730469 C 58.625 16.730469 58.480469 16.449219 58.433594 16.070312 C 58.339844 15.433594 58.339844 15.433594 58.292969 16.140625 C 58.246094 17.460938 57.378906 17.839844 56.71875 16.847656 C 56.273438 16.140625 56.4375 14.871094 56.929688 15.292969 C 57.167969 15.460938 57.355469 15.410156 57.636719 15.058594 C 57.964844 14.679688 58.128906 14.65625 58.503906 14.847656 C 58.765625 14.988281 59.023438 15.339844 59.117188 15.671875 Z M 59.632812 17.957031 C 60.078125 18.40625 59.984375 19.511719 59.46875 19.796875 C 58.8125 20.148438 58.503906 20.078125 58.503906 19.605469 C 58.503906 19.394531 58.386719 19.039062 58.246094 18.851562 C 58.058594 18.59375 58.035156 18.6875 58.152344 19.253906 C 58.316406 20.054688 58.105469 20.242188 57.613281 19.746094 C 57.191406 19.324219 57.261719 18.214844 57.753906 17.933594 C 58.292969 17.601562 59.28125 17.601562 59.632812 17.957031 Z M 59.632812 17.957031 "/>
<path style=" stroke:none;fill-rule:nonzero;fill:rgb(0%,0%,0%);fill-opacity:1;" d="M 51.316406 8.035156 C 51.152344 8.320312 51.597656 8.71875 52.113281 8.71875 C 52.539062 8.71875 52.46875 8.082031 52.019531 7.917969 C 51.527344 7.730469 51.503906 7.730469 51.316406 8.035156 Z M 51.316406 8.035156 "/>
<path style=" stroke:none;fill-rule:nonzero;fill:rgb(0%,0%,0%);fill-opacity:1;" d="M 54.277344 10.722656 C 54.441406 10.933594 54.628906 11.027344 54.675781 10.980469 C 54.839844 10.816406 54.511719 10.367188 54.230469 10.367188 C 54.089844 10.367188 54.089844 10.511719 54.277344 10.722656 Z M 54.277344 10.722656 "/>
<path style=" stroke:none;fill-rule:nonzero;fill:rgb(0%,0%,0%);fill-opacity:1;" d="M 57.097656 16.117188 C 57.097656 16.332031 57.214844 16.496094 57.332031 16.496094 C 57.472656 16.496094 57.566406 16.402344 57.566406 16.285156 C 57.566406 16.140625 57.472656 15.976562 57.332031 15.90625 C 57.214844 15.835938 57.097656 15.929688 57.097656 16.117188 Z M 57.097656 16.117188 "/>
<path style=" stroke:none;fill-rule:nonzero;fill:rgb(0%,0%,0%);fill-opacity:1;" d="M 59 18.757812 C 59 19.015625 59.070312 19.089844 59.140625 18.898438 C 59.210938 18.734375 59.1875 18.523438 59.117188 18.453125 C 59.046875 18.359375 58.976562 18.5 59 18.757812 Z M 59 18.757812 "/>
<path style=" stroke:none;fill-rule:nonzero;fill:rgb(0%,0%,0%);fill-opacity:1;" d="M 29.019531 5.421875 C 28.640625 5.492188 28.078125 5.703125 27.796875 5.84375 C 27.113281 6.222656 26.457031 8.011719 26.621094 9.167969 L 26.738281 10.0625 L 25.023438 10.039062 C 23.425781 10.015625 23.238281 10.0625 22.578125 10.699219 C 21.546875 11.6875 21.171875 13.574219 21.78125 14.800781 C 22.578125 16.425781 23.871094 16.992188 28.195312 17.578125 C 29.675781 17.769531 31.578125 18.097656 32.402344 18.285156 C 33.222656 18.476562 33.929688 18.59375 33.929688 18.570312 C 33.953125 18.523438 33.90625 16.261719 33.835938 13.550781 C 33.695312 8.390625 33.574219 7.800781 32.449219 6.503906 C 31.671875 5.609375 30.167969 5.136719 29.019531 5.421875 Z M 29.019531 5.421875 "/>
<path style=" stroke:none;fill-rule:nonzero;fill:rgb(0%,0%,0%);fill-opacity:1;" d="M 19.597656 20.949219 C 18.703125 21.492188 18.398438 21.914062 18.890625 21.914062 C 19.101562 21.914062 19.265625 21.964844 19.265625 22.011719 C 19.265625 22.082031 18.796875 23.09375 18.210938 24.296875 C 16.824219 27.171875 16.257812 28.890625 16.636719 29.269531 C 17.128906 29.761719 18.679688 29.054688 20.160156 27.691406 C 21.6875 26.277344 22.792969 24.34375 22.980469 22.71875 C 23.074219 21.84375 23.003906 21.5625 22.554688 21.089844 C 21.875 20.359375 20.628906 20.3125 19.597656 20.949219 Z M 22.179688 21.351562 C 22.746094 21.890625 22.648438 22.8125 21.851562 24.460938 C 21.050781 26.132812 19.101562 28.371094 18.070312 28.726562 C 17.199219 29.03125 17.035156 28.75 17.386719 27.617188 C 17.761719 26.441406 20.253906 21.375 20.558594 21.160156 C 20.957031 20.855469 21.804688 20.949219 22.179688 21.351562 Z M 22.179688 21.351562 "/>
<path style=" stroke:none;fill-rule:nonzero;fill:rgb(0%,0%,0%);fill-opacity:1;" d="M 24.507812 23.917969 C 23.425781 24.390625 22.460938 25.945312 22.460938 27.289062 C 22.4375 28.253906 22.507812 28.398438 22.957031 28.46875 C 23.285156 28.515625 23.589844 28.371094 23.777344 28.066406 C 24.152344 27.453125 24.34375 27.453125 24.507812 28.042969 C 24.625 28.515625 25.28125 28.914062 25.539062 28.679688 C 25.609375 28.609375 25.492188 28.371094 25.28125 28.160156 C 24.789062 27.664062 24.8125 27.21875 25.375 25.945312 C 26.199219 24.15625 25.847656 23.351562 24.507812 23.917969 Z M 25.234375 24.484375 C 25.398438 24.71875 24.105469 27.171875 23.589844 27.570312 C 23.355469 27.785156 23.167969 27.808594 22.980469 27.617188 C 22.625 27.265625 23.144531 25.875 23.964844 24.980469 C 24.648438 24.25 25.023438 24.109375 25.234375 24.484375 Z M 25.234375 24.484375 "/>
<path style=" stroke:none;fill-rule:nonzero;fill:rgb(0%,0%,0%);fill-opacity:1;" d="M 28.359375 23.988281 C 26.457031 25.261719 25.421875 28.515625 26.902344 28.515625 C 28.03125 28.515625 29.769531 25.734375 29.558594 24.273438 C 29.464844 23.542969 29.160156 23.472656 28.359375 23.988281 Z M 29.136719 24.839844 C 29.136719 25.003906 28.925781 25.425781 28.664062 25.734375 C 28.429688 26.0625 28.265625 26.394531 28.335938 26.464844 C 28.570312 26.699219 27.679688 27.808594 27.230469 27.808594 C 26.410156 27.808594 26.855469 26.253906 28.007812 25.050781 C 28.734375 24.296875 29.136719 24.226562 29.136719 24.839844 Z M 29.136719 24.839844 "/>
<path style=" stroke:none;fill-rule:nonzero;fill:rgb(0%,0%,0%);fill-opacity:1;" d="M 31.085938 24.789062 C 30.167969 25.78125 29.839844 26.417969 29.839844 27.289062 C 29.839844 28.773438 31.203125 28.84375 32.871094 27.429688 C 33.386719 26.960938 33.835938 26.488281 33.835938 26.347656 C 33.835938 26.226562 33.386719 26.511719 32.847656 26.960938 C 31.8125 27.855469 30.710938 28.089844 30.449219 27.453125 C 30.355469 27.21875 30.617188 26.960938 31.273438 26.628906 C 32.167969 26.15625 33.128906 24.980469 33.128906 24.320312 C 33.128906 23.730469 31.835938 24.011719 31.085938 24.789062 Z M 32.425781 24.839844 C 32.425781 25.191406 31.296875 26.394531 30.992188 26.394531 C 30.59375 26.394531 30.78125 25.828125 31.414062 25.167969 C 32.097656 24.4375 32.425781 24.34375 32.425781 24.839844 Z M 32.425781 24.839844 "/>
<path style=" stroke:none;fill-rule:nonzero;fill:rgb(0%,0%,0%);fill-opacity:1;" d="M 35.644531 24.765625 C 35.054688 25.570312 34.304688 27.101562 33.953125 28.207031 C 33.695312 29.101562 34.234375 28.820312 34.867188 27.738281 C 35.199219 27.171875 35.738281 26.464844 36.066406 26.15625 C 36.628906 25.617188 36.675781 25.617188 36.984375 26.039062 C 37.265625 26.417969 37.382812 26.441406 38.015625 26.179688 C 38.933594 25.804688 39.472656 25.214844 38.933594 25.214844 C 38.722656 25.214844 38.488281 25.308594 38.417969 25.449219 C 38.203125 25.78125 37.59375 25.757812 37.59375 25.402344 C 37.59375 25.261719 37.828125 24.886719 38.109375 24.578125 C 38.933594 23.707031 38.0625 23.894531 36.960938 24.863281 C 35.808594 25.828125 35.503906 25.921875 36.042969 25.074219 C 36.675781 24.132812 36.347656 23.871094 35.644531 24.765625 Z M 35.644531 24.765625 "/>
<path style=" stroke:none;fill-rule:nonzero;fill:rgb(0%,0%,0%);fill-opacity:1;" d="M 53.21875 24.4375 C 52.113281 24.671875 51.550781 25.050781 50.988281 25.851562 C 50.445312 26.652344 50.398438 26.933594 50.398438 29.316406 C 50.398438 30.753906 50.492188 33.273438 50.609375 34.902344 L 50.824219 37.847656 L 52.113281 37.421875 C 52.820312 37.1875 54.652344 36.738281 56.203125 36.410156 C 59.445312 35.726562 60.480469 35.324219 61.394531 34.453125 C 62.335938 33.558594 62.734375 32.710938 62.734375 31.578125 C 62.734375 28.914062 60.808594 27.738281 57.917969 28.632812 C 57.496094 28.75 57.402344 28.609375 57.167969 27.3125 C 56.859375 25.640625 56.226562 24.863281 55.003906 24.507812 C 54.136719 24.273438 53.996094 24.25 53.21875 24.4375 Z M 53.21875 24.4375 "/>
<path style=" stroke:none;fill-rule:nonzero;fill:rgb(0%,0%,0%);fill-opacity:1;" d="M 186.820312 27.382812 C 186.464844 28.207031 185.832031 29.175781 185.410156 29.550781 C 184.117188 30.777344 184.609375 31.273438 186.277344 30.421875 C 187.40625 29.835938 188.839844 28.324219 189.027344 27.523438 C 189.144531 27.078125 189.050781 26.769531 188.699219 26.417969 C 187.898438 25.617188 187.546875 25.804688 186.820312 27.382812 Z M 186.820312 27.382812 "/>
<path style=" stroke:none;fill-rule:nonzero;fill:rgb(0%,0%,0%);fill-opacity:1;" d="M 197.226562 26.324219 C 196.875 27.453125 196.125 28.820312 195.371094 29.644531 C 194.925781 30.164062 194.550781 30.636719 194.550781 30.730469 C 194.550781 31.058594 195.441406 30.824219 196.59375 30.164062 C 197.980469 29.363281 199.011719 28.136719 199.011719 27.289062 C 199.011719 26.226562 197.507812 25.402344 197.226562 26.324219 Z M 197.226562 26.324219 "/>
<path style=" stroke:none;fill-rule:nonzero;fill:rgb(0%,0%,0%);fill-opacity:1;" d="M 91.964844 26.628906 C 89.378906 27.007812 88.15625 27.714844 88.582031 28.515625 C 89.097656 29.457031 89.707031 29.550781 90.976562 28.867188 C 92.621094 27.972656 94.714844 27.808594 96.027344 28.46875 C 99.578125 30.304688 97.273438 37.28125 92.082031 40.367188 C 91.1875 40.886719 90.34375 41.214844 89.992188 41.191406 C 89.472656 41.121094 89.402344 41.027344 89.472656 40.296875 C 89.613281 38.882812 90.742188 35.820312 92.128906 33.015625 C 92.878906 31.53125 93.445312 30.210938 93.375 30.117188 C 93.304688 30.023438 92.785156 29.929688 92.222656 29.929688 L 91.164062 29.929688 L 89.898438 32.566406 C 88.488281 35.441406 87.40625 38.859375 87.40625 40.34375 C 87.40625 42.015625 88.957031 42.890625 91.117188 42.394531 C 94.078125 41.734375 97.296875 39.023438 98.847656 35.890625 C 99.578125 34.40625 99.742188 33.769531 99.8125 32.378906 C 99.929688 30.164062 99.601562 29.199219 98.308594 28.089844 C 96.875 26.792969 94.476562 26.253906 91.964844 26.628906 Z M 91.964844 26.628906 "/>
<path style=" stroke:none;fill-rule:nonzero;fill:rgb(0%,0%,0%);fill-opacity:1;" d="M 156.484375 26.792969 C 154.957031 27.125 151.832031 27.101562 150.5625 26.746094 C 149.929688 26.582031 149.90625 26.605469 149.90625 27.382812 C 149.90625 29.316406 151.996094 29.761719 155.5 28.539062 C 156.554688 28.160156 157.425781 27.902344 157.425781 27.972656 C 157.425781 28.019531 156.0625 29.574219 154.394531 31.414062 C 150.375 35.820312 148.167969 38.507812 147.414062 39.898438 C 146.875 40.886719 146.851562 41.121094 147.085938 41.710938 C 147.460938 42.605469 147.910156 42.722656 149.4375 42.300781 C 150.140625 42.113281 151.574219 41.875 152.632812 41.804688 C 154.230469 41.664062 154.675781 41.710938 155.59375 42.136719 C 156.203125 42.394531 156.742188 42.558594 156.8125 42.464844 C 157.144531 42.160156 156.90625 41.214844 156.34375 40.554688 C 155.828125 39.921875 155.59375 39.824219 154.582031 39.824219 C 153.359375 39.824219 150.328125 40.414062 149.601562 40.816406 C 147.957031 41.664062 149.765625 39.355469 154.769531 34.148438 C 156.953125 31.859375 159 29.597656 159.304688 29.128906 C 159.773438 28.347656 159.796875 28.183594 159.515625 27.640625 C 158.976562 26.628906 158.222656 26.417969 156.484375 26.792969 Z M 156.484375 26.792969 "/>
<path style=" stroke:none;fill-rule:nonzero;fill:rgb(0%,0%,0%);fill-opacity:1;" d="M 5.992188 33.15625 C 6.039062 38.648438 6.203125 39.425781 7.660156 40.769531 C 8.601562 41.640625 8.789062 41.710938 10.054688 41.710938 C 12.21875 41.710938 13.15625 40.699219 13.15625 38.316406 L 13.15625 37.023438 L 14.636719 37.140625 C 15.859375 37.234375 16.234375 37.1875 16.871094 36.761719 C 17.808594 36.171875 18.328125 35.042969 18.328125 33.605469 C 18.328125 31.390625 16.425781 30.210938 11.867188 29.574219 C 10.316406 29.363281 8.386719 29.03125 7.566406 28.84375 C 6.742188 28.679688 6.0625 28.515625 6.015625 28.515625 C 5.992188 28.515625 5.992188 30.613281 5.992188 33.15625 Z M 5.992188 33.15625 "/>
<path style=" stroke:none;fill-rule:nonzero;fill:rgb(0%,0%,0%);fill-opacity:1;" d="M 43.75 29.222656 C 43.46875 29.597656 43.234375 30.046875 43.234375 30.1875 C 43.234375 30.515625 44.335938 29.550781 44.667969 28.914062 C 45.066406 28.207031 44.3125 28.445312 43.75 29.222656 Z M 43.75 29.222656 "/>
<path style=" stroke:none;fill-rule:nonzero;fill:rgb(0%,0%,0%);fill-opacity:1;" d="M 39.003906 29.574219 C 38.699219 29.90625 38.535156 30.234375 38.605469 30.328125 C 38.792969 30.492188 39.945312 29.503906 39.945312 29.175781 C 39.945312 28.820312 39.566406 28.984375 39.003906 29.574219 Z M 39.003906 29.574219 "/>
<path style=" stroke:none;fill-rule:nonzero;fill:rgb(0%,0%,0%);fill-opacity:1;" d="M 23.589844 32.027344 C 23.355469 32.261719 23.847656 32.519531 24.578125 32.519531 L 25.375 32.519531 L 23.964844 33.957031 C 21.945312 36.054688 21.78125 36.832031 23.496094 36.316406 C 24.035156 36.148438 24.671875 36.101562 24.90625 36.171875 C 25.234375 36.265625 25.375 36.21875 25.375 35.960938 C 25.375 35.679688 25.140625 35.585938 24.4375 35.585938 C 23.917969 35.585938 23.496094 35.488281 23.496094 35.371094 C 23.496094 35.253906 24.25 34.476562 25.140625 33.628906 C 26.058594 32.78125 26.714844 32.027344 26.574219 31.953125 C 26.363281 31.8125 23.753906 31.859375 23.589844 32.027344 Z M 23.589844 32.027344 "/>
<path style=" stroke:none;fill-rule:nonzero;fill:rgb(0%,0%,0%);fill-opacity:1;" d="M 27.46875 32.96875 C 26.480469 33.933594 26.316406 34.242188 26.316406 35.042969 C 26.316406 36.125 26.644531 36.527344 27.492188 36.527344 C 28.40625 36.527344 30.875 34.640625 30.476562 34.242188 C 30.378906 34.171875 29.886719 34.5 29.371094 34.972656 C 28.734375 35.535156 28.195312 35.820312 27.726562 35.820312 C 26.761719 35.820312 26.761719 35.042969 27.726562 34.640625 C 28.640625 34.265625 29.605469 33.109375 29.605469 32.378906 C 29.605469 31.4375 28.734375 31.671875 27.46875 32.96875 Z M 29.136719 32.78125 C 29.136719 33.109375 27.84375 34.40625 27.515625 34.40625 C 27.089844 34.40625 27.207031 34.027344 27.867188 33.25 C 28.453125 32.519531 29.136719 32.285156 29.136719 32.78125 Z M 29.136719 32.78125 "/>
<path style=" stroke:none;fill-rule:nonzero;fill:rgb(0%,0%,0%);fill-opacity:1;" d="M 36.535156 32.542969 C 35.527344 33.441406 35.007812 34.359375 35.007812 35.300781 C 35.007812 37.023438 36.9375 36.925781 38.628906 35.136719 C 39.542969 34.171875 39.285156 33.957031 38.300781 34.878906 C 37.5 35.632812 36.652344 35.960938 36.066406 35.726562 C 35.527344 35.535156 35.644531 34.949219 36.277344 34.78125 C 36.984375 34.59375 38.582031 32.851562 38.488281 32.332031 C 38.347656 31.648438 37.453125 31.742188 36.535156 32.542969 Z M 37.828125 32.78125 C 37.828125 32.921875 37.523438 33.34375 37.148438 33.722656 C 35.972656 34.902344 35.503906 34.523438 36.558594 33.25 C 37.148438 32.519531 37.828125 32.285156 37.828125 32.78125 Z M 37.828125 32.78125 "/>
<path style=" stroke:none;fill-rule:nonzero;fill:rgb(0%,0%,0%);fill-opacity:1;" d="M 40.742188 32.875 C 38.109375 35.609375 39.96875 37.964844 42.761719 35.441406 C 44.03125 34.289062 43.960938 33.910156 42.714844 34.996094 C 41.964844 35.632812 41.542969 35.820312 41.023438 35.773438 C 39.992188 35.679688 40.039062 35.230469 41.117188 34.617188 C 42.175781 34.027344 43.117188 32.710938 42.902344 32.167969 C 42.667969 31.507812 41.753906 31.789062 40.742188 32.875 Z M 42.292969 32.851562 C 42.292969 33.203125 41 34.40625 40.625 34.40625 C 40.296875 34.40625 41.046875 33.0625 41.519531 32.78125 C 42.105469 32.449219 42.292969 32.472656 42.292969 32.851562 Z M 42.292969 32.851562 "/>
<path style=" stroke:none;fill-rule:nonzero;fill:rgb(0%,0%,0%);fill-opacity:1;" d="M 105.425781 32.050781 C 103.3125 32.710938 101.152344 35.371094 100.539062 38.082031 C 100.1875 39.636719 100.421875 40.839844 101.269531 41.78125 C 101.808594 42.394531 102.089844 42.535156 102.890625 42.511719 C 104.019531 42.464844 105.285156 41.617188 105.898438 40.460938 L 106.296875 39.707031 L 106.4375 40.699219 C 106.601562 41.851562 106.953125 42.324219 107.753906 42.511719 C 108.527344 42.722656 109.820312 42.089844 110.175781 41.335938 C 110.527344 40.53125 110.550781 40.554688 109.445312 40.601562 L 108.433594 40.652344 L 108.433594 39.472656 C 108.457031 38.578125 108.71875 37.703125 109.585938 35.820312 C 111.066406 32.566406 111.113281 32.378906 110.339844 32.027344 C 109.796875 31.765625 109.65625 31.8125 109.070312 32.355469 C 108.410156 32.992188 108.410156 32.992188 107.964844 32.519531 C 107.402344 31.976562 106.320312 31.765625 105.425781 32.050781 Z M 107.636719 33.746094 C 107.941406 34.289062 107.636719 35.277344 106.507812 37.539062 C 105.449219 39.683594 104.207031 41.050781 103.40625 40.957031 C 101.433594 40.722656 103.335938 34.570312 105.734375 33.414062 C 106.625 32.992188 107.308594 33.109375 107.636719 33.746094 Z M 107.636719 33.746094 "/>
<path style=" stroke:none;fill-rule:nonzero;fill:rgb(0%,0%,0%);fill-opacity:1;" d="M 116.1875 32.355469 C 113.371094 33.722656 111.347656 37.585938 112.054688 40.226562 C 112.921875 43.453125 117.058594 43.265625 119.597656 39.921875 C 120.347656 38.929688 121.242188 36.433594 121.242188 35.324219 C 121.242188 34.3125 120.582031 32.828125 119.925781 32.402344 C 118.914062 31.742188 117.503906 31.71875 116.1875 32.355469 Z M 118.796875 33.605469 C 119.289062 35.535156 118 39.355469 116.375 40.769531 C 114.945312 42.039062 114.097656 41.546875 114.144531 39.496094 C 114.214844 36.691406 116.472656 32.992188 118.117188 32.992188 C 118.492188 32.992188 118.703125 33.179688 118.796875 33.605469 Z M 118.796875 33.605469 "/>
<path style=" stroke:none;fill-rule:nonzero;fill:rgb(0%,0%,0%);fill-opacity:1;" d="M 128.054688 32.027344 C 126.269531 32.589844 124.765625 33.980469 123.683594 36.101562 C 122.039062 39.355469 123.214844 42.488281 126.105469 42.511719 C 127.796875 42.535156 128.898438 42.230469 129.699219 41.570312 C 130.945312 40.507812 130.355469 39.261719 129.089844 40.273438 C 128.3125 40.886719 126.785156 41.308594 126.152344 41.121094 C 125.632812 40.957031 124.90625 39.496094 125.070312 39 C 125.140625 38.859375 125.800781 38.648438 126.527344 38.554688 C 129.160156 38.246094 131.273438 36.691406 131.507812 34.902344 C 131.8125 32.710938 130.214844 31.367188 128.054688 32.027344 Z M 129.605469 33.816406 C 129.816406 34.640625 129.066406 35.960938 127.9375 36.785156 C 126.902344 37.539062 125.46875 37.941406 125.46875 37.492188 C 125.46875 36.902344 126.714844 34.617188 127.375 33.933594 C 128.3125 33.015625 129.394531 32.945312 129.605469 33.816406 Z M 129.605469 33.816406 "/>
<path style=" stroke:none;fill-rule:nonzero;fill:rgb(0%,0%,0%);fill-opacity:1;" d="M 134.515625 32.144531 C 134.117188 32.425781 134.09375 32.542969 134.375 33.085938 C 134.84375 33.933594 134.585938 35.300781 133.363281 38.671875 C 132.800781 40.25 132.378906 41.6875 132.425781 41.828125 C 132.496094 41.992188 132.824219 42.253906 133.152344 42.394531 C 133.953125 42.773438 134.140625 42.558594 135.078125 40.179688 C 135.902344 38.082031 137.710938 35.277344 138.675781 34.570312 C 139.285156 34.121094 139.332031 34.121094 139.945312 34.523438 C 140.578125 34.925781 140.601562 34.925781 141.023438 34.40625 C 141.847656 33.390625 141.375 31.8125 140.25 31.8125 C 139.566406 31.8125 137.828125 33.558594 137.078125 34.996094 C 136.699219 35.703125 136.324219 36.289062 136.230469 36.289062 C 135.972656 36.289062 135.972656 36.316406 136.511719 34.757812 C 136.773438 34.003906 136.984375 33.25 136.984375 33.0625 C 136.984375 32.566406 136.089844 31.8125 135.503906 31.8125 C 135.199219 31.8125 134.75 31.953125 134.515625 32.144531 Z M 134.515625 32.144531 "/>
<path style=" stroke:none;fill-rule:nonzero;fill:rgb(0%,0%,0%);fill-opacity:1;" d="M 163.464844 32.144531 C 161.675781 32.804688 160.222656 34.289062 159.304688 36.386719 C 157.777344 39.800781 159.023438 42.535156 162.078125 42.511719 C 164.402344 42.511719 166.117188 41.59375 166.117188 40.414062 C 166.117188 39.660156 165.859375 39.683594 164.566406 40.4375 C 162.546875 41.640625 160.949219 41.191406 160.949219 39.449219 C 160.949219 38.742188 160.972656 38.71875 162.21875 38.554688 C 165.671875 38.152344 167.667969 36.148438 167.199219 33.582031 C 166.917969 32.167969 165.203125 31.507812 163.464844 32.144531 Z M 165.320312 33.863281 C 165.53125 34.6875 164.824219 35.960938 163.699219 36.785156 C 162.828125 37.421875 161.511719 37.871094 161.253906 37.632812 C 161.019531 37.398438 162.382812 34.757812 163.132812 33.980469 C 164.074219 32.992188 165.109375 32.945312 165.320312 33.863281 Z M 165.320312 33.863281 "/>
<path style=" stroke:none;fill-rule:nonzero;fill:rgb(0%,0%,0%);fill-opacity:1;" d="M 170.652344 32.050781 C 170.089844 32.285156 169.925781 32.851562 170.347656 33.109375 C 170.957031 33.488281 170.277344 36.03125 168.515625 39.871094 C 167.667969 41.804688 167.691406 42.230469 168.679688 42.488281 C 169.335938 42.652344 169.476562 42.488281 170.652344 40.179688 C 171.804688 37.964844 175.070312 33.886719 175.824219 33.746094 C 176.597656 33.605469 176.503906 34.429688 175.5625 36.621094 C 173.988281 40.179688 173.964844 41.710938 175.421875 42.324219 C 175.894531 42.511719 176.480469 42.605469 176.761719 42.511719 C 177.492188 42.300781 178.335938 41.476562 178.335938 40.980469 C 178.335938 40.652344 178.171875 40.601562 177.351562 40.699219 L 176.386719 40.839844 L 176.527344 39.992188 C 176.597656 39.519531 177.089844 38.152344 177.632812 36.972656 C 178.851562 34.265625 178.949219 33.15625 178.007812 32.355469 C 177.46875 31.90625 177.160156 31.8125 176.597656 31.90625 C 175.539062 32.121094 174.929688 32.613281 173.472656 34.40625 C 172.746094 35.300781 172.109375 36.007812 172.0625 35.984375 C 172.039062 35.9375 172.203125 35.347656 172.460938 34.6875 C 173.074219 33.109375 173.050781 32.636719 172.414062 32.191406 C 171.828125 31.765625 171.429688 31.742188 170.652344 32.050781 Z M 170.652344 32.050781 "/>
<path style=" stroke:none;fill-rule:nonzero;fill:rgb(0%,0%,0%);fill-opacity:1;" d="M 185.292969 32.167969 C 182.542969 33.15625 180.144531 36.972656 180.570312 39.730469 C 180.875 41.875 182.566406 42.890625 185.054688 42.441406 C 187.21875 42.039062 188.324219 41.074219 187.875 39.945312 C 187.78125 39.660156 187.523438 39.730469 186.582031 40.320312 C 184.445312 41.664062 182.800781 41.261719 182.800781 39.425781 C 182.800781 38.765625 182.871094 38.648438 183.386719 38.648438 C 185.386719 38.648438 187.78125 37.515625 188.699219 36.148438 C 189.191406 35.394531 189.285156 33.722656 188.886719 32.945312 C 188.628906 32.449219 187.335938 31.8125 186.628906 31.8125 C 186.394531 31.835938 185.808594 31.976562 185.292969 32.167969 Z M 187.171875 33.839844 C 187.382812 34.710938 186.75 35.914062 185.621094 36.738281 C 184.679688 37.421875 183.363281 37.871094 183.105469 37.632812 C 182.871094 37.398438 184.234375 34.757812 184.984375 33.980469 C 185.925781 33.015625 186.960938 32.945312 187.171875 33.839844 Z M 187.171875 33.839844 "/>
<path style=" stroke:none;fill-rule:nonzero;fill:rgb(0%,0%,0%);fill-opacity:1;" d="M 195.277344 32.097656 C 194.171875 32.472656 192.175781 34.382812 191.425781 35.796875 C 190.71875 37.09375 190.414062 38.835938 190.648438 40.132812 C 190.976562 41.945312 192.808594 42.867188 195.160156 42.441406 C 197.15625 42.066406 198.378906 40.957031 197.816406 40.039062 C 197.648438 39.753906 197.53125 39.753906 197.085938 40.039062 C 194.574219 41.617188 192.925781 41.453125 192.832031 39.589844 C 192.785156 38.789062 192.785156 38.789062 194.054688 38.601562 C 197.4375 38.082031 199.578125 36.101562 199.152344 33.839844 C 198.847656 32.285156 197.109375 31.484375 195.277344 32.097656 Z M 197.085938 34.21875 C 197.132812 34.902344 197.015625 35.230469 196.40625 35.9375 C 195.558594 36.902344 194.03125 37.777344 193.351562 37.65625 C 192.925781 37.585938 192.949219 37.46875 193.703125 35.914062 C 194.574219 34.050781 195.511719 33.15625 196.40625 33.273438 C 196.921875 33.34375 197.015625 33.488281 197.085938 34.21875 Z M 197.085938 34.21875 "/>
<path style=" stroke:none;fill-rule:nonzero;fill:rgb(0%,0%,0%);fill-opacity:1;" d="M 33.648438 32.78125 C 32.636719 33.535156 32.496094 33.511719 32.894531 32.734375 C 33.082031 32.378906 33.058594 32.285156 32.800781 32.285156 C 32.402344 32.285156 30.355469 36.171875 30.640625 36.457031 C 30.734375 36.550781 30.992188 36.386719 31.226562 36.101562 C 31.4375 35.796875 31.953125 35.160156 32.378906 34.6875 C 33.082031 33.910156 33.152344 33.886719 33.011719 34.40625 C 32.613281 35.773438 32.613281 36.902344 32.988281 37.210938 C 33.503906 37.632812 33.671875 37.421875 33.386719 36.691406 C 33.082031 35.890625 33.410156 34.804688 34.304688 33.558594 C 35.480469 31.90625 35.222656 31.625 33.648438 32.78125 Z M 33.648438 32.78125 "/>
<path style=" stroke:none;fill-rule:nonzero;fill:rgb(0%,0%,0%);fill-opacity:1;" d="M 44.523438 39.519531 C 39.730469 45.175781 31.835938 53.589844 31.460938 53.445312 C 31.367188 53.398438 28.242188 49.863281 24.53125 45.597656 C 20.136719 40.53125 17.667969 37.847656 17.410156 37.894531 C 17.199219 37.917969 16.375 38.011719 15.578125 38.105469 C 14.097656 38.246094 14.097656 38.246094 14.097656 39 C 14.097656 39.425781 13.839844 40.25 13.511719 40.863281 L 12.921875 41.945312 L 18.609375 48.378906 C 21.710938 51.890625 25.800781 56.535156 27.679688 58.679688 C 29.558594 60.824219 31.179688 62.660156 31.273438 62.777344 C 31.390625 62.898438 33.199219 61.222656 35.433594 58.890625 C 42.386719 51.679688 55.074219 37.941406 54.910156 37.800781 C 54.863281 37.753906 53.78125 38.035156 52.515625 38.433594 C 51.222656 38.8125 50.046875 39.070312 49.882812 39.023438 C 49.71875 38.953125 49.648438 38.625 49.71875 38.128906 C 49.765625 37.703125 49.742188 36.527344 49.648438 35.535156 L 49.460938 33.722656 Z M 48.308594 40.578125 C 48.378906 40.699219 48.238281 41.050781 47.957031 41.335938 C 47.414062 41.898438 47.34375 42.183594 47.699219 42.183594 C 47.839844 42.183594 48.050781 41.898438 48.191406 41.546875 C 48.355469 41.121094 48.496094 41.003906 48.660156 41.167969 C 49.296875 41.804688 48.144531 43.054688 47.203125 42.773438 C 46.546875 42.558594 45.980469 41.59375 46.171875 41.003906 C 46.429688 40.203125 47.910156 39.898438 48.308594 40.578125 Z M 19.5 41.992188 C 19.878906 42.417969 20.207031 42.960938 20.207031 43.171875 C 20.207031 43.738281 19.523438 44.351562 19.03125 44.183594 C 18.703125 44.089844 18.585938 44.234375 18.46875 44.890625 C 18.234375 46.070312 17.738281 45.8125 17.714844 44.515625 C 17.691406 43.007812 17.667969 42.984375 17.035156 43.597656 C 16.496094 44.089844 16.449219 44.113281 16.304688 43.714844 C 16.1875 43.40625 16.425781 43.03125 17.292969 42.277344 C 17.925781 41.710938 18.515625 41.261719 18.632812 41.238281 C 18.726562 41.238281 19.125 41.59375 19.5 41.992188 Z M 46.359375 42.628906 C 47.179688 43.382812 47.390625 43.949219 46.828125 43.949219 C 46.335938 43.949219 44.359375 41.898438 44.5 41.546875 C 44.667969 41.144531 44.761719 41.191406 46.359375 42.628906 Z M 45.113281 43.382812 C 45.113281 43.527344 44.902344 43.691406 44.644531 43.761719 C 44.054688 43.925781 44.03125 44.445312 44.621094 44.773438 C 45.253906 45.105469 45.300781 45.082031 45.394531 44.492188 C 45.488281 43.855469 45.933594 43.667969 46.148438 44.183594 C 46.5 45.128906 45.183594 46.023438 44.195312 45.503906 C 43.140625 44.941406 43.398438 43.125 44.523438 43.125 C 44.855469 43.125 45.113281 43.242188 45.113281 43.382812 Z M 21.027344 45.246094 C 21.382812 45.648438 21.40625 45.8125 21.195312 46.304688 C 21.050781 46.636719 20.769531 46.894531 20.558594 46.894531 C 20.371094 46.894531 20.207031 46.988281 20.207031 47.132812 C 20.207031 47.578125 19.289062 47.367188 18.9375 46.847656 C 18.445312 46.140625 18.46875 45.8125 19.03125 45.246094 C 19.644531 44.632812 20.488281 44.632812 21.027344 45.246094 Z M 43.679688 46.070312 C 44.476562 47.484375 44.574219 48.097656 44.078125 48.523438 C 43.703125 48.851562 43.398438 48.523438 43.609375 48.003906 C 43.679688 47.765625 43.351562 47.507812 42.410156 47.132812 C 41.375 46.707031 41.164062 46.542969 41.375 46.28125 C 41.566406 46.070312 41.777344 46.046875 42.199219 46.210938 C 43 46.496094 43.046875 46.496094 42.761719 45.976562 C 42.480469 45.410156 42.457031 44.773438 42.738281 44.773438 C 42.855469 44.773438 43.28125 45.363281 43.679688 46.070312 Z M 22.320312 46.730469 C 22.320312 46.894531 22.53125 47.15625 22.792969 47.320312 C 23.050781 47.484375 23.261719 47.789062 23.261719 48.027344 C 23.261719 48.664062 21.96875 49.816406 21.476562 49.628906 C 21.125 49.488281 21.171875 49.371094 21.851562 48.664062 C 22.53125 47.957031 22.578125 47.839844 22.226562 47.695312 C 21.96875 47.601562 21.617188 47.742188 21.242188 48.097656 C 20.792969 48.523438 20.605469 48.570312 20.371094 48.332031 C 20.136719 48.097656 20.277344 47.886719 21.027344 47.226562 C 22.039062 46.378906 22.320312 46.257812 22.320312 46.730469 Z M 41.449219 47.058594 C 41.542969 47.15625 41.375 47.414062 41.09375 47.625 C 40.484375 48.074219 40.625 48.78125 41.351562 48.78125 C 41.660156 48.78125 41.824219 48.617188 41.824219 48.308594 C 41.824219 48.050781 41.988281 47.839844 42.175781 47.839844 C 42.785156 47.839844 42.597656 48.96875 41.941406 49.394531 C 41.425781 49.722656 41.234375 49.746094 40.789062 49.488281 C 40.039062 49.085938 39.683594 48.285156 40.015625 47.695312 C 40.414062 46.964844 41.046875 46.683594 41.449219 47.058594 Z M 24.414062 49.015625 C 24.507812 49.015625 24.695312 49.253906 24.835938 49.535156 C 25.117188 50.195312 24.835938 51.136719 24.34375 51.136719 C 24.152344 51.136719 23.964844 51.277344 23.894531 51.421875 C 23.707031 51.960938 22.4375 51.089844 22.367188 50.382812 C 22.273438 49.699219 23.332031 48.664062 23.917969 48.898438 C 24.082031 48.96875 24.320312 49.015625 24.414062 49.015625 Z M 40.039062 49.535156 C 40.015625 49.769531 40.132812 49.960938 40.320312 49.960938 C 40.765625 49.960938 40.742188 50.640625 40.25 51.183594 C 39.777344 51.703125 39.261719 51.726562 38.582031 51.230469 C 38.015625 50.832031 37.875 49.769531 38.347656 49.300781 C 38.792969 48.851562 40.0625 49.039062 40.039062 49.535156 Z M 37.148438 50.429688 C 37.40625 50.570312 37.59375 50.925781 37.59375 51.253906 C 37.59375 51.703125 37.710938 51.84375 38.132812 51.84375 C 38.839844 51.84375 39.332031 52.199219 39.121094 52.550781 C 39.003906 52.738281 38.628906 52.785156 37.921875 52.667969 C 37.078125 52.550781 36.890625 52.597656 36.890625 52.90625 C 36.890625 53.09375 37.054688 53.328125 37.242188 53.398438 C 37.664062 53.566406 37.710938 54.105469 37.335938 54.34375 C 37.054688 54.507812 34.773438 52.386719 34.773438 51.9375 C 34.773438 51.679688 36.300781 50.195312 36.558594 50.195312 C 36.628906 50.195312 36.890625 50.3125 37.148438 50.429688 Z M 25.847656 50.878906 C 25.847656 51.136719 25.75 51.421875 25.609375 51.492188 C 25.117188 51.796875 25.398438 52.054688 25.964844 51.796875 C 26.691406 51.46875 27.324219 51.867188 26.832031 52.363281 C 26.363281 52.835938 26.527344 53.023438 27.277344 52.859375 C 28.429688 52.644531 28.03125 53.28125 26.714844 53.824219 C 25.847656 54.175781 25.539062 54.222656 25.328125 54.011719 C 25.117188 53.800781 25.117188 53.660156 25.328125 53.445312 C 25.800781 52.976562 25.65625 52.785156 24.90625 52.929688 C 24.011719 53.117188 24.011719 52.859375 24.8125 51.46875 C 25.46875 50.359375 25.847656 50.148438 25.847656 50.878906 Z M 25.847656 50.878906 "/>
<path style=" stroke:none;fill-rule:nonzero;fill:rgb(0%,0%,0%);fill-opacity:1;" d="M 46.992188 41.003906 C 46.804688 41.121094 46.734375 41.285156 46.828125 41.382812 C 46.921875 41.476562 47.132812 41.429688 47.273438 41.285156 C 47.625 40.933594 47.4375 40.722656 46.992188 41.003906 Z M 46.992188 41.003906 "/>
<path style=" stroke:none;fill-rule:nonzero;fill:rgb(0%,0%,0%);fill-opacity:1;" d="M 18.445312 42.417969 C 18.28125 42.699219 18.703125 43.359375 19.054688 43.359375 C 19.382812 43.359375 19.289062 42.746094 18.9375 42.441406 C 18.703125 42.230469 18.5625 42.230469 18.445312 42.417969 Z M 18.445312 42.417969 "/>
<path style=" stroke:none;fill-rule:nonzero;fill:rgb(0%,0%,0%);fill-opacity:1;" d="M 20.089844 45.71875 C 20.160156 45.835938 20.347656 45.953125 20.464844 45.953125 C 20.605469 45.953125 20.628906 45.835938 20.558594 45.71875 C 20.488281 45.574219 20.300781 45.480469 20.183594 45.480469 C 20.042969 45.480469 20.019531 45.574219 20.089844 45.71875 Z M 20.089844 45.71875 "/>
<path style=" stroke:none;fill-rule:nonzero;fill:rgb(0%,0%,0%);fill-opacity:1;" d="M 19.3125 46.234375 C 19.382812 46.402344 19.621094 46.589844 19.878906 46.636719 C 20.253906 46.707031 20.277344 46.660156 19.996094 46.328125 C 19.621094 45.882812 19.195312 45.835938 19.3125 46.234375 Z M 19.3125 46.234375 "/>
<path style=" stroke:none;fill-rule:nonzero;fill:rgb(0%,0%,0%);fill-opacity:1;" d="M 23.847656 49.960938 C 23.917969 50.078125 24.035156 50.195312 24.105469 50.195312 C 24.152344 50.195312 24.199219 50.078125 24.199219 49.960938 C 24.199219 49.816406 24.082031 49.722656 23.941406 49.722656 C 23.824219 49.722656 23.777344 49.816406 23.847656 49.960938 Z M 23.847656 49.960938 "/>
<path style=" stroke:none;fill-rule:nonzero;fill:rgb(0%,0%,0%);fill-opacity:1;" d="M 23.074219 50.453125 C 23.121094 50.617188 23.308594 50.808594 23.472656 50.855469 C 23.660156 50.925781 23.753906 50.832031 23.683594 50.640625 C 23.636719 50.476562 23.449219 50.289062 23.285156 50.242188 C 23.097656 50.171875 23.003906 50.265625 23.074219 50.453125 Z M 23.074219 50.453125 "/>
<path style=" stroke:none;fill-rule:nonzero;fill:rgb(0%,0%,0%);fill-opacity:1;" d="M 38.769531 49.984375 C 38.769531 50.101562 38.886719 50.148438 39.003906 50.078125 C 39.144531 50.007812 39.238281 49.886719 39.238281 49.816406 C 39.238281 49.769531 39.144531 49.722656 39.003906 49.722656 C 38.886719 49.722656 38.769531 49.839844 38.769531 49.984375 Z M 38.769531 49.984375 "/>
<path style=" stroke:none;fill-rule:nonzero;fill:rgb(0%,0%,0%);fill-opacity:1;" d="M 39.472656 50.546875 C 39.285156 50.761719 39.285156 50.902344 39.425781 50.902344 C 39.707031 50.902344 40.039062 50.453125 39.875 50.289062 C 39.824219 50.242188 39.636719 50.335938 39.472656 50.546875 Z M 39.472656 50.546875 "/>
<path style=" stroke:none;fill-rule:nonzero;fill:rgb(0%,0%,0%);fill-opacity:1;" d="M 36.089844 51.492188 C 35.738281 51.75 35.691406 51.914062 35.902344 52.128906 C 36.207031 52.433594 36.890625 51.984375 36.890625 51.46875 C 36.890625 51.042969 36.652344 51.066406 36.089844 51.492188 Z M 36.089844 51.492188 "/>
</g>
</svg>
