<?xml version="1.0" encoding="UTF-8"?>
<svg xmlns="http://www.w3.org/2000/svg" xmlns:xlink="http://www.w3.org/1999/xlink" width="201px" height="201px" viewBox="0 0 201 201" version="1.1">
<g id="surface1">
<path style=" stroke:none;fill-rule:evenodd;fill:rgb(10.588235%,23.137255%,16.862746%);fill-opacity:1;" d="M 68.644531 2.019531 C 62.882812 2.902344 56.597656 6.386719 53.152344 10.609375 C 51.855469 12.203125 32.738281 44.996094 32.460938 46.105469 C 32.359375 46.515625 74.765625 71.347656 74.988281 71.007812 C 75.019531 70.964844 78.15625 65.511719 81.960938 58.898438 C 85.769531 52.28125 90.675781 43.746094 92.871094 39.933594 C 95.066406 36.121094 97.03125 33.191406 97.234375 33.417969 C 97.761719 34.003906 110.75 56.535156 110.902344 57.128906 C 110.96875 57.394531 107.304688 59.765625 102.753906 62.398438 L 94.484375 67.179688 L 113.78125 66.90625 C 124.398438 66.757812 135.789062 66.507812 139.097656 66.351562 L 145.109375 66.066406 L 156.390625 47.246094 C 162.59375 36.898438 168.320312 27.308594 169.121094 25.9375 C 170.84375 22.980469 171.617188 22.707031 161.203125 28.71875 C 154.542969 32.566406 154.207031 32.699219 153.53125 31.785156 C 153.144531 31.257812 150.445312 26.652344 147.539062 21.554688 C 140.390625 9.023438 136.640625 5.246094 128.820312 2.707031 C 126.332031 1.898438 123.421875 1.800781 98.746094 1.703125 C 83.722656 1.640625 70.175781 1.785156 68.644531 2.019531 M 157.433594 79.453125 C 145.757812 86.183594 136.140625 91.757812 136.058594 91.84375 C 135.976562 91.925781 136.652344 93.230469 137.558594 94.742188 C 140.699219 99.976562 157.894531 129.886719 157.894531 130.113281 C 157.894531 130.238281 151.519531 130.28125 143.734375 130.207031 L 129.574219 130.074219 L 129.320312 120.816406 L 129.070312 111.554688 L 124.503906 119.8125 C 121.992188 124.351562 116.621094 134.011719 112.570312 141.273438 C 108.519531 148.539062 105.277344 154.75 105.359375 155.082031 C 105.445312 155.410156 110.8125 165.199219 117.292969 176.832031 L 129.070312 197.988281 L 129.320312 188.839844 L 129.574219 179.695312 L 143.105469 179.4375 C 157.882812 179.15625 159.304688 178.910156 164.382812 175.703125 C 168.945312 172.824219 170.847656 170.09375 183.457031 148.316406 C 201.136719 117.78125 200.578125 118.972656 200.578125 111.839844 C 200.578125 107.566406 199.949219 104.613281 198.375 101.503906 C 197.621094 100.015625 179.183594 67.925781 178.734375 67.316406 C 178.691406 67.261719 169.105469 72.722656 157.433594 79.453125 M 1.285156 71.851562 C 1.820312 72.210938 5.386719 74.289062 9.210938 76.476562 C 13.035156 78.660156 16.261719 80.699219 16.378906 81.003906 C 16.496094 81.304688 14.292969 85.480469 11.484375 90.277344 C 8.671875 95.070312 5.734375 100.351562 4.957031 102.003906 C 2.066406 108.128906 2.070312 115.714844 4.972656 121.976562 C 5.757812 123.671875 12.144531 134.984375 19.167969 147.117188 C 33.101562 171.179688 34.972656 173.746094 40.671875 176.59375 C 46.160156 179.335938 47.144531 179.433594 69.296875 179.441406 L 89.722656 179.445312 L 89.722656 130.324219 L 67.667969 130.324219 C 55.539062 130.324219 45.613281 130.226562 45.613281 130.109375 C 45.613281 129.988281 47.550781 126.550781 49.921875 122.464844 C 52.292969 118.378906 55.363281 113.058594 56.75 110.640625 C 58.136719 108.226562 59.449219 106.136719 59.671875 106 C 59.890625 105.863281 63.609375 107.796875 67.933594 110.296875 C 72.257812 112.796875 75.863281 114.773438 75.949219 114.691406 C 76.03125 114.605469 70.414062 105.0625 63.460938 93.484375 L 50.824219 72.429688 L 46.839844 72.117188 C 44.648438 71.945312 33.285156 71.667969 21.585938 71.503906 C 4.082031 71.253906 0.488281 71.316406 1.285156 71.851562 "/>
</g>
</svg>
